HIERARCHY
ROOT SimulationBone
{
	OFFSET 0.000000 0.000000 0.000000
	CHANNELS 6 Xposition Yposition Zposition Zrotation Yrotation Xrotation 
	JOINT Hips
	{
		OFFSET 0.000000 0.000000 0.000000
		CHANNELS 6 Xposition Yposition Zposition Zrotation Yrotation Xrotation 
		JOINT LeftUpLeg
		{
			OFFSET 0.103460 1.857825 10.548519
			CHANNELS 3 Zrotation Yrotation Xrotation
			JOINT LeftLeg
			{
				OFFSET 43.500008 -0.000019 0.000016
				CHANNELS 3 Zrotation Yrotation Xrotation
				JOINT LeftFoot
				{
					OFFSET 42.372192 0.000004 0.000011
					CHANNELS 3 Zrotation Yrotation Xrotation
					JOINT LeftToe
					{
						OFFSET 17.300001 0.000001 -0.000016
						CHANNELS 3 Zrotation Yrotation Xrotation
						End Site
						{
							OFFSET 0.000000 0.000000 0.000000
						}
					}
				}
			}
		}
		JOINT RightUpLeg
		{
			OFFSET 0.103460 1.857824 -10.548484
			CHANNELS 3 Zrotation Yrotation Xrotation
			JOINT RightLeg
			{
				OFFSET 43.500046 -0.000008 0.000031
				CHANNELS 3 Zrotation Yrotation Xrotation
				JOINT RightFoot
				{
					OFFSET 42.372261 0.000000 0.000010
					CHANNELS 3 Zrotation Yrotation Xrotation
					JOINT RightToe
					{
						OFFSET 17.299986 -0.000007 0.000010
						CHANNELS 3 Zrotation Yrotation Xrotation
						End Site
						{
							OFFSET 0.000000 0.000000 0.000000
						}
					}
				}
			}
		}
		JOINT Spine
		{
			OFFSET 6.901969 -2.603749 -0.000000
			CHANNELS 3 Zrotation Yrotation Xrotation
			JOINT Spine1
			{
				OFFSET 12.588099 0.000014 -0.000003
				CHANNELS 3 Zrotation Yrotation Xrotation
				JOINT Spine2
				{
					OFFSET 12.343207 0.000019 0.000011
					CHANNELS 3 Zrotation Yrotation Xrotation
					JOINT Neck
					{
						OFFSET 25.832890 -0.000025 -0.000002
						CHANNELS 3 Zrotation Yrotation Xrotation
						JOINT Head
						{
							OFFSET 11.766609 0.000013 -0.000004
							CHANNELS 3 Zrotation Yrotation Xrotation
							End Site
							{
								OFFSET 0.000000 0.000000 0.000000
							}
						}
					}
					JOINT LeftShoulder
					{
						OFFSET 19.745899 -1.480392 6.000105
						CHANNELS 3 Zrotation Yrotation Xrotation
						JOINT LeftArm
						{
							OFFSET 11.284097 -0.000017 -0.000023
							CHANNELS 3 Zrotation Yrotation Xrotation
							JOINT LeftForeArm
							{
								OFFSET 33.000065 -0.000020 0.000044
								CHANNELS 3 Zrotation Yrotation Xrotation
								JOINT LeftHand
								{
									OFFSET 25.200005 0.000023 0.000007
									CHANNELS 3 Zrotation Yrotation Xrotation
									End Site
									{
										OFFSET 0.000000 0.000000 0.000000
									}
								}
							}
						}
					}
					JOINT RightShoulder
					{
						OFFSET 19.746096 -1.480391 -6.000090
						CHANNELS 3 Zrotation Yrotation Xrotation
						JOINT RightArm
						{
							OFFSET 11.284126 -0.000026 -0.000012
							CHANNELS 3 Zrotation Yrotation Xrotation
							JOINT RightForeArm
							{
								OFFSET 33.000092 0.000010 0.000014
								CHANNELS 3 Zrotation Yrotation Xrotation
								JOINT RightHand
								{
									OFFSET 25.199760 0.000151 0.000418
									CHANNELS 3 Zrotation Yrotation Xrotation
									End Site
									{
										OFFSET 0.000000 0.000000 0.000000
									}
								}
							}
						}
					}
				}
			}
		}
	}
}
MOTION
Frames: 10
Frame Time: 0.033333
-30.444679 0.000000 -356.467878 0.000000 -80.926263 0.000000 -1.920413 90.122360 0.945887 89.767533 2.767925 -179.638741 148.335480 -2.667101 176.711720 -63.012907 7.252705 -6.568423 77.859976 1.726622 -10.494035 21.454557 0.003100 0.000019 170.686660 -4.147594 -166.329013 -26.977500 -0.755885 3.675375 87.549399 -2.713415 -1.319810 21.454551 -0.003104 -0.000003 7.090890 0.408573 0.845225 4.174885 0.786743 1.704519 3.856908 0.796889 1.699720 5.417959 0.573002 13.320203 -24.468815 -1.673992 14.801247 161.885018 -80.803242 16.860086 20.031377 65.443123 31.119670 -34.967632 -9.817024 1.023885 6.672667 -2.339688 10.258902 -154.793206 84.056106 27.039681 -23.650771 -56.727170 -15.534294 -66.833538 20.630936 -2.756939 9.541295 2.283496 -42.284584 
-30.279365 0.000000 -353.567618 0.000000 -80.827995 0.000000 -1.810163 90.061813 0.861684 89.896551 2.342510 179.488079 148.322530 -1.911496 174.790510 -52.805664 7.342800 -5.767497 78.022781 1.460234 -9.562812 21.454558 0.003112 0.000018 172.859466 -3.718594 -166.281570 -27.023522 -0.607074 3.063254 88.978896 -2.282167 -1.316674 21.454551 -0.003086 0.000003 7.168681 0.354940 1.058086 4.330831 0.670472 2.128615 4.012941 0.683175 2.124527 4.935986 -0.084338 13.206296 -24.282950 -1.473912 14.460192 165.039063 -80.409167 13.680914 20.270256 65.438779 31.853933 -32.943580 -9.551230 0.962315 7.143741 -2.066738 10.277381 -155.653809 84.065681 26.170770 -29.342486 -55.078707 -10.246221 -67.743148 20.642326 -2.795367 9.438342 1.983377 -42.327471 
-30.079544 0.000000 -350.676553 0.000000 -80.759965 0.000000 -1.605558 89.987213 0.905347 89.868143 1.939496 178.832215 149.152180 -1.294906 172.786670 -40.750350 6.680331 -3.722480 76.829117 0.417204 -7.916565 21.454558 0.003112 0.000018 175.304742 -3.505991 -166.682721 -26.263262 -0.421959 2.836735 90.137446 -2.089073 -1.143354 21.454551 -0.003101 -0.000001 7.160158 0.281531 1.207561 4.313003 0.518370 2.424685 3.995191 0.532858 2.421512 5.178334 -0.575684 13.094059 -24.138233 -1.032195 14.067504 166.690903 -79.987888 12.022959 21.067575 65.225165 32.759308 -31.319494 -9.229270 0.907846 7.490779 -1.523718 10.367516 -158.042340 83.999715 23.760944 -33.441412 -53.954468 -6.222369 -68.055779 20.396002 -2.790811 8.295693 3.461230 -41.416085 
-29.848796 0.000000 -347.798536 0.000000 -80.728166 0.000000 -1.418026 89.938454 1.056010 89.740200 1.607297 178.558246 151.103291 -0.929200 170.854792 -27.829140 5.252480 -0.788501 75.323845 -2.117549 -9.248583 21.454558 0.003116 0.000018 177.855749 -3.622608 -167.460625 -24.928128 -0.349602 3.132999 90.785631 -2.211465 -0.685542 21.454551 -0.003074 0.000002 7.085076 0.216170 1.231338 4.161558 0.388431 2.469611 3.843760 0.403205 2.467212 6.047396 -0.948854 12.797440 -23.991067 -0.806463 13.621425 168.679909 -79.720978 10.013926 22.168152 64.952708 33.689618 -30.145395 -8.740236 0.852805 8.164536 -0.491297 10.424463 -162.333243 84.239182 19.426470 -36.629044 -53.396080 -3.624579 -67.641979 20.558279 -2.785182 6.597190 4.856013 -38.216759 
-29.607386 0.000000 -344.933207 0.000000 -80.727166 0.000000 -1.258345 89.692207 1.252993 89.568337 1.731168 178.384398 152.950612 -0.492294 169.482265 -17.983179 4.948827 0.822782 73.042186 -4.713527 -13.161212 21.454557 0.003099 0.000015 -179.683617 -4.237109 -167.665735 -23.651620 -0.598561 3.188985 91.552375 -2.162112 -0.144048 21.454551 -0.003089 0.000001 6.977104 0.215858 1.255355 3.945679 0.389349 2.517264 3.627915 0.404381 2.514884 6.610659 -0.703770 12.324877 -22.917619 -0.471434 13.013342 169.954053 -80.033459 8.710002 23.683331 65.104038 34.905385 -29.499751 -8.336159 0.814041 8.742303 0.350864 11.125972 -165.051330 84.194273 16.683372 -38.806054 -53.145907 -2.463977 -66.712029 20.914850 -2.772122 5.115946 5.355543 -33.006305 
-29.366681 0.000000 -342.087883 0.000000 -80.761421 0.000000 -1.022150 89.310333 1.359512 89.845747 2.027823 178.222338 154.179759 0.051496 167.473602 -14.848462 5.965462 0.874265 71.265647 -4.470897 -11.602353 21.454558 0.003108 0.000016 -177.203247 -4.504896 -167.489598 -23.430097 -0.455746 2.828408 92.303962 -1.865727 0.302010 21.454551 -0.003080 0.000001 6.960316 0.242414 1.245999 3.912661 0.443131 2.499392 3.594879 0.458071 2.496672 6.879962 -0.569314 11.881262 -21.172354 0.287565 12.228948 173.023923 -80.330797 5.583975 24.938419 65.259261 35.939089 -29.313546 -8.167976 0.799499 8.896419 0.706641 12.148787 -165.285510 84.371237 16.446121 -40.244171 -53.617221 -2.550561 -65.182613 21.209766 -2.730443 3.911292 7.201383 -28.197746 
-29.125032 0.000000 -339.263420 0.000000 -80.839334 0.000000 -0.715749 88.971832 1.396510 90.383879 2.117562 178.014817 154.204539 0.220898 165.998240 -18.639395 6.674384 0.354367 70.535036 -1.658913 -4.125196 21.454558 0.003110 0.000018 -175.345600 -3.860694 -166.021968 -25.096743 -0.169775 1.487337 92.646148 -0.936257 0.628351 21.454555 -0.003088 0.000000 6.985174 0.204206 1.185851 3.961364 0.368211 2.377940 3.643550 0.382429 2.375661 7.303354 -0.664073 11.416338 -20.006285 1.273228 11.335289 177.175995 -80.163130 1.373058 25.530583 64.939690 36.720285 -29.322890 -8.268996 0.806329 9.051846 1.039312 11.846409 -165.428780 84.429751 16.301334 -40.731843 -54.711659 -3.349515 -64.008148 21.408451 -2.696996 3.461256 7.614142 -23.525588 
-28.902085 0.000000 -336.446878 0.000000 -80.967636 0.000000 -0.509206 88.991226 1.280838 90.878576 1.572926 177.784989 155.101056 0.621593 166.450276 -21.913643 6.448290 -0.388696 72.270006 0.045397 -0.643399 21.454560 0.003118 0.000020 -174.386573 -2.197799 -164.210247 -28.051858 -0.097514 -0.152272 91.510232 0.257735 1.234869 21.454555 -0.003081 0.000001 7.046856 0.034122 1.095608 4.081173 0.030072 2.191728 3.763331 0.043165 2.191518 7.017169 -1.314258 10.847307 -19.016131 2.331186 10.220465 -177.949008 -79.431166 -3.565886 24.178986 64.358605 35.913432 -29.445987 -8.364511 0.814907 9.214064 0.400371 11.502305 -165.792337 84.425079 15.934517 -39.503509 -56.465017 -5.459380 -62.957918 21.711092 -2.676312 3.912204 6.697024 -22.068420 
-28.718031 0.000000 -333.624474 0.000000 -81.138545 0.000000 -0.253215 89.143738 0.983817 91.332724 0.925599 177.580842 156.141458 1.427191 169.604771 -24.934625 5.715823 -2.530383 74.328031 1.810948 0.096531 21.454562 0.003114 0.000019 -174.956020 0.126099 -162.677156 -33.497037 -0.043844 -1.628729 87.558387 1.284125 1.105596 21.454551 -0.003091 0.000003 7.122319 -0.216226 1.022332 4.227672 -0.469235 2.036187 3.909770 -0.457065 2.038958 7.030215 -2.196027 10.327205 -19.084271 3.514349 9.085872 -175.029034 -78.552045 -6.525903 21.727815 63.541195 33.569417 -29.245664 -8.106492 0.794189 8.715713 -1.006528 11.175865 -166.367330 84.186309 15.355017 -36.638139 -58.665752 -8.774967 -61.124162 21.997302 -2.624028 4.001920 6.400099 -22.712250 
-28.565262 0.000000 -330.802341 0.000000 -81.333120 0.000000 -0.163731 89.261063 0.719348 91.268637 0.623770 177.488652 156.828055 1.582798 171.289779 -27.556531 5.074824 -3.735917 77.317987 2.408755 -0.817472 21.454558 0.003103 0.000018 -177.796846 2.638391 -161.220181 -41.280909 -0.198008 -3.043042 80.424999 2.404786 1.282616 21.454553 -0.003105 0.000002 7.080359 -0.424013 0.969750 4.140614 -0.882039 1.923919 3.822661 -0.870549 1.929204 7.579892 -2.579539 9.694439 -20.054935 4.459288 7.997762 -175.100068 -78.612356 -6.455103 20.203288 63.421141 32.790792 -29.091975 -8.407406 0.811214 8.553583 -2.018630 10.044097 -168.318647 84.239216 13.385371 -31.652791 -61.446772 -13.825287 -58.650848 22.396380 -2.556469 4.907548 5.787383 -23.000792 
